<svg width="15" height="25" viewBox="0 0 15 25" fill="none" xmlns="http://www.w3.org/2000/svg">
<path d="M2.76762 0.347056C2.51938 0.118642 2.19104 -0.00570926 1.85178 0.000201458C1.51252 0.00611218 1.18882 0.141824 0.94889 0.378743C0.708958 0.615662 0.571521 0.935291 0.565535 1.27029C0.559549 1.6053 0.685482 1.92951 0.9168 2.17464L11.3408 12.4677L0.9168 22.7608C0.788139 22.8792 0.684942 23.022 0.613367 23.1806C0.541793 23.3392 0.503306 23.5105 0.500204 23.6841C0.497101 23.8577 0.529447 24.0302 0.59531 24.1912C0.661173 24.3522 0.759206 24.4985 0.883558 24.6213C1.00791 24.7441 1.15603 24.8409 1.3191 24.9059C1.48216 24.9709 1.65681 25.0029 1.83265 24.9998C2.00848 24.9967 2.18189 24.9587 2.34253 24.8881C2.50316 24.8174 2.64774 24.7155 2.76762 24.5884L14.117 13.3815C14.3623 13.1391 14.5 12.8104 14.5 12.4677C14.5 12.1251 14.3623 11.7964 14.117 11.554L2.76762 0.347056Z" fill="#E3010F"/>
</svg>
