<svg width="15" height="25" viewBox="0 0 15 25" fill="none" xmlns="http://www.w3.org/2000/svg">
<path d="M12.2324 0.347056C12.4806 0.118642 12.809 -0.00570926 13.1482 0.000201458C13.4875 0.00611218 13.8112 0.141824 14.0511 0.378743C14.291 0.615662 14.4285 0.935291 14.4345 1.27029C14.4405 1.6053 14.3145 1.92951 14.0832 2.17464L3.65922 12.4677L14.0832 22.7608C14.2119 22.8792 14.3151 23.022 14.3866 23.1806C14.4582 23.3392 14.4967 23.5105 14.4998 23.6841C14.5029 23.8577 14.4706 24.0302 14.4047 24.1912C14.3388 24.3522 14.2408 24.4985 14.1164 24.6213C13.9921 24.7441 13.844 24.8409 13.6809 24.9059C13.5178 24.9709 13.3432 25.0029 13.1674 24.9998C12.9915 24.9967 12.8181 24.9587 12.6575 24.8881C12.4968 24.8174 12.3523 24.7155 12.2324 24.5884L0.882978 13.3815C0.637744 13.1391 0.5 12.8104 0.5 12.4677C0.5 12.1251 0.637744 11.7964 0.882978 11.554L12.2324 0.347056Z" fill="#E3010F"/>
</svg>
