<svg width="195" height="65" viewBox="0 0 195 65" fill="none" xmlns="http://www.w3.org/2000/svg">
<path fill-rule="evenodd" clip-rule="evenodd" d="M134.614 60.6073V6.68689H167.261V60.6073H134.614ZM139.137 56.2032V11.091H162.738V56.2032H139.137Z" fill="#E3010F"/>
<path fill-rule="evenodd" clip-rule="evenodd" d="M134.614 60.6127C137.19 53.2364 139.769 45.8422 142.351 38.4299C144.934 31.0176 147.538 23.5511 150.164 16.0306L166.622 16.0793L183.054 16.128C180.403 23.6052 177.759 31.0554 175.122 38.4785L167.261 60.6289H134.614V60.6127ZM140.403 57.0039C142.568 50.8288 144.732 44.6338 146.896 38.419C149.06 32.2042 151.24 25.9642 153.437 19.6989L165.34 19.7368L177.243 19.7692C175.032 26.0201 172.826 32.2493 170.626 38.4569C168.426 44.6645 166.236 50.8486 164.058 57.0093H140.403V57.0039Z" fill="#E3010F"/>
<path fill-rule="evenodd" clip-rule="evenodd" d="M134.614 60.6127L145.879 45.4148L157.019 30.3846L173.191 30.1248L189.66 29.8597C185.967 34.9347 182.255 40.0314 178.525 45.1496L167.261 60.6127H134.614ZM140.912 58.1131L150.332 45.3823L159.659 32.7706L171.384 32.5974L183.254 32.4189C180.159 36.6679 177.052 40.9259 173.932 45.1929L164.512 58.086H152.609H140.885L140.912 58.1131Z" fill="#E3010F"/>
<path fill-rule="evenodd" clip-rule="evenodd" d="M134.614 60.6126L141.994 55.8623C144.434 54.2824 146.863 52.7188 149.293 51.1606L156.429 46.5671L163.463 42.017H195C192.739 43.5265 190.482 45.0414 188.21 46.5671L181.355 51.1606L174.321 55.8623L167.223 60.6126H134.614ZM141.545 59.049L147.664 55.0886L153.735 51.1606L159.686 47.3084L165.584 43.5211H188.437L182.713 47.3408L176.924 51.1606L171.032 55.0886L165.08 59.049H141.55H141.545Z" fill="#E3010F"/>
<path d="M8.02069 6.76781H13.1606V29.8271H8.02069V20.7321H5.19104V29.8271H0.051124V6.76781H5.19104V15.7275H8.02069V6.76781ZM26.1835 11.7725H21.3412V15.7275H25.8535V20.7321H21.3412V24.8224H26.1835V29.8325H16.2013V6.76781H26.1835V11.7725ZM40.7268 6.76781H47.1165V29.8271H41.9441V18.6275L39.4391 29.8271H36.3443L33.8393 18.6275V29.8271H28.6777V6.76781H35.0675L37.8755 21.0946L40.7105 6.76781H40.7268ZM59.8418 11.7725H54.9725V15.7275H59.5172V20.7321H55.0049V24.8224H59.8743V29.8325H49.8596V6.76781H59.8418V11.7725ZM75.2021 24.7575H76.8252V33.6523H71.6528V29.8H62.0926V6.76781H67.2325V24.7846H70.0676V6.76781H75.2075V24.7846L75.2021 24.7575ZM93.4353 29.8H87.9653L84.4431 22.4202V29.8H79.103V6.76781H84.4431V13.8501L87.7327 6.76781H93.2026L88.3927 18.1946L93.4353 29.8271V29.8ZM105.241 6.74074H110.31V29.8H105.138V17.6049L100.81 29.8271H95.7347V6.76781H100.907V18.9521L105.235 6.76781L105.241 6.74074ZM121.294 0.475464H124.919C124.888 1.68695 124.378 2.83686 123.501 3.67303C122.852 4.30089 122.035 4.72695 121.149 4.89951C120.263 5.07207 119.346 4.98371 118.509 4.64516C117.672 4.3066 116.951 3.7324 116.434 2.99224C115.917 2.25208 115.626 1.37779 115.596 0.475464H119.216C119.235 0.730265 119.354 0.96733 119.546 1.13554C119.743 1.30608 119.994 1.39997 120.255 1.39997C120.515 1.39997 120.767 1.30608 120.964 1.13554C121.156 0.96733 121.274 0.730265 121.294 0.475464ZM122.446 6.76781H127.521V29.8271H122.349V17.6049L118.02 29.8271H112.951V6.76781H118.118V18.9521L122.446 6.76781ZM0.00241548 52.8269V44.9979C-0.0249378 43.6846 0.180209 42.3768 0.608382 41.1349C0.925939 40.1653 1.48442 39.2922 2.23151 38.5974C2.86461 38.0294 3.59871 37.5852 4.39569 37.2881C6.00157 36.7361 7.74579 36.7361 9.35167 37.2881C10.1483 37.5709 10.883 38.0045 11.5158 38.565C12.2652 39.2427 12.8247 40.1043 13.139 41.0646C13.5583 42.3035 13.7686 43.6035 13.7612 44.9114V45.6851H8.48598V45.0467C8.42105 43.0069 7.90166 41.9897 6.9386 41.9897C6.68721 41.9836 6.44024 42.0566 6.23251 42.1983C6.02478 42.34 5.86677 42.5434 5.78076 42.7797C5.506 43.5606 5.38655 44.3876 5.4291 45.2144V52.605C5.3884 53.4387 5.50775 54.2726 5.78076 55.0614C5.86404 55.3007 6.02088 55.5076 6.22884 55.6524C6.43681 55.7972 6.68524 55.8725 6.9386 55.8675C7.9233 55.8675 8.44269 54.8233 8.48598 52.7403V52.1343H13.7612V52.9405C13.7696 54.2485 13.5593 55.5487 13.139 56.7873C12.8233 57.7484 12.2641 58.6115 11.5158 59.2924C10.883 59.8528 10.1483 60.2863 9.35167 60.5692C7.74579 61.1212 6.00157 61.1212 4.39569 60.5692C3.59971 60.27 2.86597 59.8261 2.23151 59.2599C1.48442 58.5651 0.925939 57.692 0.608382 56.7224C0.180209 55.4805 -0.0249378 54.1727 0.00241548 52.8593V52.8269ZM28.0718 37.1691V42.2765H24.4738V60.672H19.2365V42.2765H15.6927V37.1691H28.0718ZM38.7358 60.6882L37.962 56.1164H34.7158L33.9096 60.6882H28.6777L32.9412 37.1691H39.6988L44.0001 60.6882H38.7358ZM35.2406 50.8791H37.3344L36.2956 43.0827L35.2136 50.8791H35.2406ZM54.5721 37.1691H59.8148V60.6882H54.5721V51.4148H51.6829V60.6882H46.4402V37.1691H51.6829V46.3073H54.5721V37.1691ZM78.2373 55.5645H79.8605V64.7623H74.5853V60.7315H67.3894V64.7623H62.1142V55.5645H62.8176C64.2243 55.3986 64.9277 54.349 64.9277 52.4157V37.1691H78.2373V55.5645ZM69.5806 55.5645H72.9784V42.309H70.1758V52.5888C70.2034 53.6087 69.996 54.6213 69.5698 55.5483L69.5806 55.5645ZM91.9041 60.7045L91.1304 56.1326H87.8842L87.078 60.7045H81.8353L86.1041 37.1853H92.8564L97.1577 60.7045H91.9041ZM88.409 50.8953H90.5299L89.4857 43.0989L88.4036 50.8953H88.409ZM99.7114 37.1853H105.181C105.923 37.1811 106.663 37.2426 107.394 37.3692C108.115 37.5004 108.815 37.726 109.477 38.0401C110.14 38.3413 110.744 38.7571 111.263 39.2683C111.79 39.8161 112.195 40.4686 112.453 41.1836C112.768 42.0333 112.922 42.9341 112.907 43.8401V45.4633C112.929 46.4984 112.722 47.5256 112.301 48.4715C111.944 49.2809 111.386 49.9851 110.678 50.5166C109.994 51.0171 109.234 51.4044 108.428 51.6636C107.576 51.9264 106.694 52.0774 105.804 52.1127H104.965V60.6828H99.7222V37.1691L99.7114 37.1853ZM107.827 44.814V44.5435C107.873 43.9187 107.679 43.2999 107.286 42.8121C107.126 42.6379 106.931 42.4996 106.714 42.4064C106.496 42.3131 106.262 42.267 106.025 42.2711H104.943V47.0756H106.025C106.262 47.0807 106.497 47.0351 106.714 46.9418C106.932 46.8484 107.127 46.7096 107.286 46.5345C107.676 46.06 107.87 45.454 107.827 44.8411V44.814ZM127.494 37.1853V42.2927H123.901V60.6882H118.659V42.2927H115.099V37.1853H127.494Z" fill="#E3010F"/>
</svg>
