<svg width="32" height="32" viewBox="0 0 32 32" fill="none" xmlns="http://www.w3.org/2000/svg">
<path d="M15.0002 20.9999C14.8686 21.0007 14.7381 20.9755 14.6163 20.9257C14.4944 20.8759 14.3836 20.8026 14.2902 20.7099L10.2902 16.7099C10.1019 16.5216 9.99609 16.2662 9.99609 15.9999C9.99609 15.7336 10.1019 15.4782 10.2902 15.2899C10.4785 15.1016 10.7339 14.9958 11.0002 14.9958C11.2665 14.9958 11.5219 15.1016 11.7102 15.2899L15.0002 18.5899L21.2902 12.2899C21.4785 12.1016 21.7339 11.9958 22.0002 11.9958C22.2665 11.9958 22.5219 12.1016 22.7102 12.2899C22.8985 12.4782 23.0043 12.7336 23.0043 12.9999C23.0043 13.2662 22.8985 13.5216 22.7102 13.7099L15.7102 20.7099C15.6167 20.8026 15.5059 20.8759 15.3841 20.9257C15.2623 20.9755 15.1318 21.0007 15.0002 20.9999Z" fill="#E3010F"/>
<path d="M16 29C13.4288 29 10.9154 28.2376 8.77759 26.8091C6.63975 25.3807 4.97351 23.3503 3.98957 20.9749C3.00563 18.5995 2.74819 15.9856 3.2498 13.4638C3.75141 10.9421 4.98953 8.6257 6.80762 6.80762C8.6257 4.98953 10.9421 3.75141 13.4638 3.2498C15.9856 2.74819 18.5995 3.00563 20.9749 3.98957C23.3503 4.97351 25.3807 6.63975 26.8091 8.77759C28.2376 10.9154 29 13.4288 29 16C29 19.4478 27.6304 22.7544 25.1924 25.1924C22.7544 27.6304 19.4478 29 16 29ZM16 5.00001C13.8244 5.00001 11.6977 5.64514 9.88873 6.85384C8.07979 8.06254 6.66989 9.7805 5.83733 11.7905C5.00477 13.8005 4.78693 16.0122 5.21137 18.146C5.63581 20.2798 6.68345 22.2398 8.22183 23.7782C9.76021 25.3166 11.7202 26.3642 13.854 26.7886C15.9878 27.2131 18.1995 26.9952 20.2095 26.1627C22.2195 25.3301 23.9375 23.9202 25.1462 22.1113C26.3549 20.3023 27 18.1756 27 16C27 13.0826 25.8411 10.2847 23.7782 8.22183C21.7153 6.15893 18.9174 5.00001 16 5.00001Z" fill="#E3010F"/>
</svg>
